<svg width="514" height="422" viewBox="0 0 514 422" fill="none" xmlns="http://www.w3.org/2000/svg">
<path fill-rule="evenodd" clip-rule="evenodd" d="M269.833 187.801C330.263 222.656 391.379 282.07 391.39 351.831C391.402 421.756 301.403 454.077 269.887 516.497C237.188 581.26 262.052 672.907 206.014 718.987C148.246 766.49 60.1956 770.366 -11.0064 747.475C-78.5423 725.763 -114.928 657.421 -158.826 601.694C-197.844 552.163 -249.245 505.152 -251.53 442.141C-253.749 380.947 -206.287 331.969 -170.406 282.348C-139.518 239.633 -107.795 195.43 -58.8959 175.743C-11.8545 156.804 38.8238 175.849 89.5006 177.708C151.174 179.971 216.373 156.967 269.833 187.801Z" fill="url(#paint0_linear)"/>
<defs>
<linearGradient id="paint0_linear" x1="310.25" y1="211.009" x2="-137.26" y2="643.103" gradientUnits="userSpaceOnUse">
<stop stop-color="#BAE3F7"/>
<stop offset="1" stop-color="#EFEEEE" stop-opacity="0"/>
</linearGradient>
</defs>
</svg>
